<mxfile host="app.diagrams.net" agent="Mozilla/5.0 (Windows NT 10.0; Win64; x64) AppleWebKit/537.36 (KHTML, like Gecko) Chrome/131.0.0.0 Safari/537.36" version="25.0.3">
  <diagram name="Page-1" id="c9Ai-ubDrSZvEC2KYgUM">
    <mxGraphModel dx="4370" dy="1704" grid="1" gridSize="10" guides="1" tooltips="1" connect="1" arrows="1" fold="1" page="1" pageScale="1" pageWidth="850" pageHeight="1100" math="0" shadow="0">
      <root>
        <mxCell id="0" />
        <mxCell id="1" parent="0" />
        <mxCell id="4" value="Client-side" style="whiteSpace=wrap;strokeWidth=2;" parent="1" vertex="1">
          <mxGeometry y="300" width="467" height="119" as="geometry" />
        </mxCell>
        <mxCell id="5" value="User Interface" style="whiteSpace=wrap;strokeWidth=2;" parent="1" vertex="1">
          <mxGeometry x="33" y="341" width="162" height="49" as="geometry" />
        </mxCell>
        <mxCell id="6" value="Client-side Logic" style="whiteSpace=wrap;strokeWidth=2;" parent="1" vertex="1">
          <mxGeometry x="270" y="341" width="179" height="49" as="geometry" />
        </mxCell>
        <mxCell id="11" value="" style="curved=1;startArrow=none;endArrow=block;exitX=1;exitY=0.5;entryX=0;entryY=0.5;" parent="1" source="5" target="6" edge="1">
          <mxGeometry relative="1" as="geometry">
            <Array as="points" />
          </mxGeometry>
        </mxCell>
        <mxCell id="FdN9x6t_w3lRcBCilJA2-15" value="" style="rounded=0;whiteSpace=wrap;html=1;" vertex="1" parent="1">
          <mxGeometry x="662.5" y="179.5" width="365" height="620.5" as="geometry" />
        </mxCell>
        <mxCell id="FdN9x6t_w3lRcBCilJA2-16" value="&lt;b&gt;&lt;u&gt;&lt;font style=&quot;font-size: 15px;&quot;&gt;CLIENT SIDE&lt;/font&gt;&lt;/u&gt;&lt;/b&gt;" style="text;html=1;align=center;verticalAlign=middle;whiteSpace=wrap;rounded=0;" vertex="1" parent="1">
          <mxGeometry x="118.5" y="301" width="230" height="40" as="geometry" />
        </mxCell>
        <mxCell id="FdN9x6t_w3lRcBCilJA2-17" value="&lt;b&gt;&lt;u&gt;&lt;font style=&quot;font-size: 15px;&quot;&gt;API GATEWAY&lt;/font&gt;&lt;/u&gt;&lt;/b&gt;" style="text;html=1;align=center;verticalAlign=middle;whiteSpace=wrap;rounded=0;" vertex="1" parent="1">
          <mxGeometry x="735" y="190" width="220" height="30" as="geometry" />
        </mxCell>
        <mxCell id="FdN9x6t_w3lRcBCilJA2-21" value="" style="whiteSpace=wrap;html=1;aspect=fixed;" vertex="1" parent="1">
          <mxGeometry x="800" y="250" width="90" height="90" as="geometry" />
        </mxCell>
        <mxCell id="FdN9x6t_w3lRcBCilJA2-49" style="edgeStyle=orthogonalEdgeStyle;rounded=0;orthogonalLoop=1;jettySize=auto;html=1;exitX=1;exitY=0.5;exitDx=0;exitDy=0;entryX=0;entryY=0.5;entryDx=0;entryDy=0;" edge="1" parent="1" source="FdN9x6t_w3lRcBCilJA2-23" target="FdN9x6t_w3lRcBCilJA2-39">
          <mxGeometry relative="1" as="geometry" />
        </mxCell>
        <mxCell id="FdN9x6t_w3lRcBCilJA2-23" value="" style="whiteSpace=wrap;html=1;aspect=fixed;" vertex="1" parent="1">
          <mxGeometry x="800" y="380" width="90" height="90" as="geometry" />
        </mxCell>
        <mxCell id="FdN9x6t_w3lRcBCilJA2-25" value="" style="whiteSpace=wrap;html=1;aspect=fixed;" vertex="1" parent="1">
          <mxGeometry x="800" y="510" width="92.5" height="92.5" as="geometry" />
        </mxCell>
        <mxCell id="FdN9x6t_w3lRcBCilJA2-26" value="" style="whiteSpace=wrap;html=1;aspect=fixed;" vertex="1" parent="1">
          <mxGeometry x="800" y="640" width="92.5" height="92.5" as="geometry" />
        </mxCell>
        <mxCell id="FdN9x6t_w3lRcBCilJA2-36" value="" style="edgeStyle=orthogonalEdgeStyle;rounded=0;orthogonalLoop=1;jettySize=auto;html=1;" edge="1" parent="1" source="FdN9x6t_w3lRcBCilJA2-27" target="FdN9x6t_w3lRcBCilJA2-35">
          <mxGeometry relative="1" as="geometry" />
        </mxCell>
        <mxCell id="FdN9x6t_w3lRcBCilJA2-27" value="Authorisations&lt;div&gt;Service&lt;/div&gt;" style="text;html=1;align=center;verticalAlign=middle;whiteSpace=wrap;rounded=0;" vertex="1" parent="1">
          <mxGeometry x="815" y="280" width="60" height="30" as="geometry" />
        </mxCell>
        <mxCell id="FdN9x6t_w3lRcBCilJA2-28" value="Message&lt;div&gt;Service&lt;/div&gt;" style="text;html=1;align=center;verticalAlign=middle;whiteSpace=wrap;rounded=0;" vertex="1" parent="1">
          <mxGeometry x="815" y="400" width="60" height="30" as="geometry" />
        </mxCell>
        <mxCell id="FdN9x6t_w3lRcBCilJA2-29" value="Payment&amp;nbsp;&lt;div&gt;Service&lt;/div&gt;" style="text;html=1;align=center;verticalAlign=middle;whiteSpace=wrap;rounded=0;" vertex="1" parent="1">
          <mxGeometry x="815" y="541.25" width="60" height="30" as="geometry" />
        </mxCell>
        <mxCell id="FdN9x6t_w3lRcBCilJA2-61" style="edgeStyle=orthogonalEdgeStyle;rounded=0;orthogonalLoop=1;jettySize=auto;html=1;exitX=1;exitY=0.25;exitDx=0;exitDy=0;entryX=0;entryY=0.5;entryDx=0;entryDy=0;" edge="1" parent="1" source="FdN9x6t_w3lRcBCilJA2-30" target="FdN9x6t_w3lRcBCilJA2-59">
          <mxGeometry relative="1" as="geometry" />
        </mxCell>
        <mxCell id="FdN9x6t_w3lRcBCilJA2-30" value="Logging and Monitoring Service" style="text;html=1;align=center;verticalAlign=middle;whiteSpace=wrap;rounded=0;" vertex="1" parent="1">
          <mxGeometry x="815" y="671.25" width="60" height="30" as="geometry" />
        </mxCell>
        <mxCell id="FdN9x6t_w3lRcBCilJA2-32" style="edgeStyle=orthogonalEdgeStyle;rounded=0;orthogonalLoop=1;jettySize=auto;html=1;exitX=1;exitY=0.5;exitDx=0;exitDy=0;entryX=0.004;entryY=0.294;entryDx=0;entryDy=0;entryPerimeter=0;curved=1;" edge="1" parent="1" source="4" target="FdN9x6t_w3lRcBCilJA2-15">
          <mxGeometry relative="1" as="geometry" />
        </mxCell>
        <mxCell id="FdN9x6t_w3lRcBCilJA2-33" value="" style="rounded=0;whiteSpace=wrap;html=1;" vertex="1" parent="1">
          <mxGeometry x="1320" y="20" width="210" height="270" as="geometry" />
        </mxCell>
        <mxCell id="FdN9x6t_w3lRcBCilJA2-34" value="&lt;h1 style=&quot;margin-top: 0px;&quot;&gt;Authorisation Backend&lt;/h1&gt;&lt;div&gt;Validates client credentials (e.g., API keys, tokens) ,login&amp;nbsp; and signup and enforces permissions , ,&amp;nbsp;&lt;/div&gt;" style="text;html=1;whiteSpace=wrap;overflow=hidden;rounded=0;" vertex="1" parent="1">
          <mxGeometry x="1335" y="95" width="180" height="120" as="geometry" />
        </mxCell>
        <mxCell id="FdN9x6t_w3lRcBCilJA2-38" style="edgeStyle=orthogonalEdgeStyle;rounded=0;orthogonalLoop=1;jettySize=auto;html=1;exitX=0.5;exitY=1;exitDx=0;exitDy=0;entryX=0;entryY=0.5;entryDx=0;entryDy=0;" edge="1" parent="1" source="FdN9x6t_w3lRcBCilJA2-35" target="FdN9x6t_w3lRcBCilJA2-33">
          <mxGeometry relative="1" as="geometry" />
        </mxCell>
        <mxCell id="FdN9x6t_w3lRcBCilJA2-35" value="Authorisations&lt;div&gt;Service&lt;/div&gt;" style="text;html=1;align=center;verticalAlign=middle;whiteSpace=wrap;rounded=0;" vertex="1" parent="1">
          <mxGeometry x="1110" y="160" width="60" height="30" as="geometry" />
        </mxCell>
        <mxCell id="FdN9x6t_w3lRcBCilJA2-68" style="edgeStyle=orthogonalEdgeStyle;rounded=0;orthogonalLoop=1;jettySize=auto;html=1;exitX=1;exitY=0.25;exitDx=0;exitDy=0;entryX=0;entryY=0.25;entryDx=0;entryDy=0;" edge="1" parent="1" source="FdN9x6t_w3lRcBCilJA2-39" target="FdN9x6t_w3lRcBCilJA2-45">
          <mxGeometry relative="1" as="geometry" />
        </mxCell>
        <mxCell id="FdN9x6t_w3lRcBCilJA2-39" value="" style="rounded=0;whiteSpace=wrap;html=1;" vertex="1" parent="1">
          <mxGeometry x="1320" y="330" width="220" height="400" as="geometry" />
        </mxCell>
        <mxCell id="FdN9x6t_w3lRcBCilJA2-40" value="&lt;div&gt;Chatgpt&lt;/div&gt;&lt;div&gt;Model&amp;nbsp;&lt;/div&gt;&lt;div&gt;1&lt;/div&gt;" style="whiteSpace=wrap;html=1;aspect=fixed;" vertex="1" parent="1">
          <mxGeometry x="1385" y="380" width="80" height="80" as="geometry" />
        </mxCell>
        <mxCell id="FdN9x6t_w3lRcBCilJA2-41" value="Chatgpt&lt;div&gt;Model&amp;nbsp;&lt;/div&gt;&lt;div&gt;2&lt;/div&gt;" style="whiteSpace=wrap;html=1;aspect=fixed;" vertex="1" parent="1">
          <mxGeometry x="1385" y="480" width="80" height="80" as="geometry" />
        </mxCell>
        <mxCell id="FdN9x6t_w3lRcBCilJA2-43" value="&lt;b&gt;&lt;u&gt;ChatGPT&lt;/u&gt;&lt;/b&gt;&lt;div&gt;&lt;b&gt;&lt;u&gt;Models&lt;/u&gt;&lt;/b&gt;&lt;/div&gt;" style="text;html=1;align=center;verticalAlign=middle;whiteSpace=wrap;rounded=0;" vertex="1" parent="1">
          <mxGeometry x="1395" y="340" width="60" height="30" as="geometry" />
        </mxCell>
        <mxCell id="FdN9x6t_w3lRcBCilJA2-44" value="ChatGPT&lt;div&gt;Model&amp;nbsp;&lt;/div&gt;&lt;div&gt;N&lt;/div&gt;" style="whiteSpace=wrap;html=1;aspect=fixed;" vertex="1" parent="1">
          <mxGeometry x="1385" y="630" width="80" height="80" as="geometry" />
        </mxCell>
        <mxCell id="FdN9x6t_w3lRcBCilJA2-45" value="" style="whiteSpace=wrap;html=1;aspect=fixed;" vertex="1" parent="1">
          <mxGeometry x="1860" y="290" width="220" height="220" as="geometry" />
        </mxCell>
        <mxCell id="FdN9x6t_w3lRcBCilJA2-52" style="edgeStyle=orthogonalEdgeStyle;rounded=0;orthogonalLoop=1;jettySize=auto;html=1;exitX=0;exitY=0.5;exitDx=0;exitDy=0;" edge="1" parent="1" source="FdN9x6t_w3lRcBCilJA2-46" target="FdN9x6t_w3lRcBCilJA2-39">
          <mxGeometry relative="1" as="geometry" />
        </mxCell>
        <mxCell id="FdN9x6t_w3lRcBCilJA2-46" value="&lt;h1 style=&quot;margin-top: 0px;&quot;&gt;Message Microservice&lt;/h1&gt;&lt;div&gt;Processes and routes client messages or API calls to the appropriate Model&lt;/div&gt;" style="text;html=1;whiteSpace=wrap;overflow=hidden;rounded=0;" vertex="1" parent="1">
          <mxGeometry x="1880" y="341" width="180" height="120" as="geometry" />
        </mxCell>
        <mxCell id="FdN9x6t_w3lRcBCilJA2-58" style="edgeStyle=orthogonalEdgeStyle;rounded=0;orthogonalLoop=1;jettySize=auto;html=1;exitX=0;exitY=0.5;exitDx=0;exitDy=0;entryX=1;entryY=0.5;entryDx=0;entryDy=0;" edge="1" parent="1" source="FdN9x6t_w3lRcBCilJA2-54" target="FdN9x6t_w3lRcBCilJA2-25">
          <mxGeometry relative="1" as="geometry" />
        </mxCell>
        <mxCell id="FdN9x6t_w3lRcBCilJA2-54" value="" style="rounded=0;whiteSpace=wrap;html=1;" vertex="1" parent="1">
          <mxGeometry x="1320" y="790" width="240" height="270" as="geometry" />
        </mxCell>
        <mxCell id="FdN9x6t_w3lRcBCilJA2-55" value="&lt;h1 style=&quot;margin-top: 0px;&quot;&gt;Payment Microservice&lt;/h1&gt;&lt;div&gt;Handles payments, subscriptions, or usage-based billing for your APIs.&lt;/div&gt;" style="text;html=1;whiteSpace=wrap;overflow=hidden;rounded=0;" vertex="1" parent="1">
          <mxGeometry x="1350" y="865" width="180" height="120" as="geometry" />
        </mxCell>
        <mxCell id="FdN9x6t_w3lRcBCilJA2-59" value="" style="rounded=0;whiteSpace=wrap;html=1;" vertex="1" parent="1">
          <mxGeometry x="1320" y="1170" width="250" height="290" as="geometry" />
        </mxCell>
        <mxCell id="FdN9x6t_w3lRcBCilJA2-60" value="&lt;h1 style=&quot;margin-top: 0px;&quot;&gt;Logging and Monitoring Service&lt;/h1&gt;&lt;div&gt;Provides metrics for debugging, performance tuning, and compliance.&lt;/div&gt;&lt;div&gt;&lt;br&gt;&lt;/div&gt;&lt;div&gt;&lt;br&gt;&lt;/div&gt;" style="text;html=1;whiteSpace=wrap;overflow=hidden;rounded=0;" vertex="1" parent="1">
          <mxGeometry x="1350" y="1255" width="190" height="175" as="geometry" />
        </mxCell>
        <mxCell id="FdN9x6t_w3lRcBCilJA2-62" value="" style="shape=cylinder;whiteSpace=wrap;html=1;boundedLbl=1;backgroundOutline=1;" vertex="1" parent="1">
          <mxGeometry x="1880" y="20" width="180" height="210" as="geometry" />
        </mxCell>
        <mxCell id="FdN9x6t_w3lRcBCilJA2-63" style="edgeStyle=orthogonalEdgeStyle;rounded=0;orthogonalLoop=1;jettySize=auto;html=1;exitX=1;exitY=0.5;exitDx=0;exitDy=0;entryX=0;entryY=0.638;entryDx=0;entryDy=0;entryPerimeter=0;" edge="1" parent="1" source="FdN9x6t_w3lRcBCilJA2-33" target="FdN9x6t_w3lRcBCilJA2-62">
          <mxGeometry relative="1" as="geometry" />
        </mxCell>
        <mxCell id="FdN9x6t_w3lRcBCilJA2-64" style="edgeStyle=orthogonalEdgeStyle;rounded=0;orthogonalLoop=1;jettySize=auto;html=1;exitX=0;exitY=0.5;exitDx=0;exitDy=0;entryX=0.99;entryY=0.393;entryDx=0;entryDy=0;entryPerimeter=0;" edge="1" parent="1" source="FdN9x6t_w3lRcBCilJA2-62" target="FdN9x6t_w3lRcBCilJA2-33">
          <mxGeometry relative="1" as="geometry" />
        </mxCell>
        <mxCell id="FdN9x6t_w3lRcBCilJA2-65" value="Data" style="text;html=1;align=center;verticalAlign=middle;whiteSpace=wrap;rounded=0;" vertex="1" parent="1">
          <mxGeometry x="1670" y="80" width="60" height="30" as="geometry" />
        </mxCell>
        <mxCell id="FdN9x6t_w3lRcBCilJA2-66" value="Query" style="text;html=1;align=center;verticalAlign=middle;whiteSpace=wrap;rounded=0;" vertex="1" parent="1">
          <mxGeometry x="1670" y="160" width="60" height="30" as="geometry" />
        </mxCell>
        <mxCell id="FdN9x6t_w3lRcBCilJA2-67" value="" style="shape=cylinder;whiteSpace=wrap;html=1;boundedLbl=1;backgroundOutline=1;" vertex="1" parent="1">
          <mxGeometry x="1880" y="570" width="170" height="180" as="geometry" />
        </mxCell>
        <mxCell id="FdN9x6t_w3lRcBCilJA2-69" value="Message" style="text;html=1;align=center;verticalAlign=middle;whiteSpace=wrap;rounded=0;" vertex="1" parent="1">
          <mxGeometry x="1700" y="306" width="60" height="30" as="geometry" />
        </mxCell>
        <mxCell id="FdN9x6t_w3lRcBCilJA2-72" style="edgeStyle=orthogonalEdgeStyle;rounded=0;orthogonalLoop=1;jettySize=auto;html=1;exitX=1;exitY=0;exitDx=0;exitDy=0;entryX=0;entryY=0.3;entryDx=0;entryDy=0;" edge="1" parent="1" target="FdN9x6t_w3lRcBCilJA2-67">
          <mxGeometry relative="1" as="geometry">
            <mxPoint x="1539.9999999999995" y="630" as="sourcePoint" />
          </mxGeometry>
        </mxCell>
        <mxCell id="FdN9x6t_w3lRcBCilJA2-71" value="Response" style="text;html=1;align=center;verticalAlign=middle;whiteSpace=wrap;rounded=0;" vertex="1" parent="1">
          <mxGeometry x="1710" y="410" width="60" height="30" as="geometry" />
        </mxCell>
        <mxCell id="FdN9x6t_w3lRcBCilJA2-74" value="Stores Message and Response" style="text;html=1;align=center;verticalAlign=middle;whiteSpace=wrap;rounded=0;" vertex="1" parent="1">
          <mxGeometry x="1590" y="590" width="280" height="30" as="geometry" />
        </mxCell>
        <mxCell id="FdN9x6t_w3lRcBCilJA2-75" style="edgeStyle=orthogonalEdgeStyle;rounded=0;orthogonalLoop=1;jettySize=auto;html=1;exitX=0;exitY=0.7;exitDx=0;exitDy=0;entryX=1.003;entryY=0.891;entryDx=0;entryDy=0;entryPerimeter=0;" edge="1" parent="1" source="FdN9x6t_w3lRcBCilJA2-67" target="FdN9x6t_w3lRcBCilJA2-39">
          <mxGeometry relative="1" as="geometry" />
        </mxCell>
        <mxCell id="FdN9x6t_w3lRcBCilJA2-76" value="Retrieve Conversations" style="text;html=1;align=center;verticalAlign=middle;whiteSpace=wrap;rounded=0;" vertex="1" parent="1">
          <mxGeometry x="1640" y="655" width="150" height="30" as="geometry" />
        </mxCell>
        <mxCell id="FdN9x6t_w3lRcBCilJA2-77" value="&lt;font style=&quot;font-size: 17px;&quot;&gt;Users&lt;/font&gt;&lt;div&gt;&lt;font style=&quot;font-size: 17px;&quot;&gt;Database&lt;/font&gt;&lt;/div&gt;" style="text;html=1;align=center;verticalAlign=middle;whiteSpace=wrap;rounded=0;" vertex="1" parent="1">
          <mxGeometry x="1940" y="110" width="60" height="30" as="geometry" />
        </mxCell>
        <mxCell id="FdN9x6t_w3lRcBCilJA2-78" value="&lt;font style=&quot;font-size: 16px;&quot;&gt;Chats&lt;/font&gt;&lt;div&gt;&lt;font style=&quot;font-size: 16px;&quot;&gt;Database&lt;/font&gt;&lt;/div&gt;" style="text;html=1;align=center;verticalAlign=middle;whiteSpace=wrap;rounded=0;" vertex="1" parent="1">
          <mxGeometry x="1940" y="671.25" width="60" height="30" as="geometry" />
        </mxCell>
        <mxCell id="FdN9x6t_w3lRcBCilJA2-79" value="" style="shape=cylinder3;whiteSpace=wrap;html=1;boundedLbl=1;backgroundOutline=1;size=15;" vertex="1" parent="1">
          <mxGeometry x="1890" y="810" width="170" height="240" as="geometry" />
        </mxCell>
        <mxCell id="FdN9x6t_w3lRcBCilJA2-80" style="edgeStyle=orthogonalEdgeStyle;rounded=0;orthogonalLoop=1;jettySize=auto;html=1;exitX=1;exitY=0.5;exitDx=0;exitDy=0;entryX=0;entryY=0.5;entryDx=0;entryDy=0;entryPerimeter=0;" edge="1" parent="1" source="FdN9x6t_w3lRcBCilJA2-54" target="FdN9x6t_w3lRcBCilJA2-79">
          <mxGeometry relative="1" as="geometry">
            <mxPoint x="1880" y="920" as="targetPoint" />
          </mxGeometry>
        </mxCell>
        <mxCell id="FdN9x6t_w3lRcBCilJA2-81" value="&lt;font style=&quot;font-size: 16px;&quot;&gt;Payment&lt;/font&gt;&lt;div&gt;&lt;font style=&quot;font-size: 16px;&quot;&gt;Database&lt;/font&gt;&lt;/div&gt;" style="text;html=1;align=center;verticalAlign=middle;whiteSpace=wrap;rounded=0;" vertex="1" parent="1">
          <mxGeometry x="1945" y="910" width="60" height="30" as="geometry" />
        </mxCell>
      </root>
    </mxGraphModel>
  </diagram>
</mxfile>
